<svg xmlns="http://www.w3.org/2000/svg" viewBox="0 0 640 640"><path fill="currentColor" d="M320 96a32 32 0 0 1 32 32l0 32a32 32 0 0 1-64 0l0-32a32 32 0 0 1 32-32zm0 352a32 32 0 0 1 32 32l0 32a32 32 0 0 1-64 0l0-32a32 32 0 0 1 32-32zM96 320a32 32 0 0 1 32-32l32 0a32 32 0 0 1 0 64l-32 0a32 32 0 0 1-32-32zm352 0a32 32 0 0 1 32-32l32 0a32 32 0 0 1 0 64l-32 0a32 32 0 0 1-32-32zM165.5 165.5a32 32 0 0 1 45.3 0l22.6 22.6a32 32 0 0 1-45.3 45.3l-22.6-22.6a32 32 0 0 1 0-45.3zm240 240a32 32 0 0 1 45.3 0l22.6 22.6a32 32 0 0 1-45.3 45.3l-22.6-22.6a32 32 0 0 1 0-45.3zM165.5 474.5a32 32 0 0 1 0-45.3l22.6-22.6a32 32 0 0 1 45.3 45.3l-22.6 22.6a32 32 0 0 1-45.3 0zm240-240a32 32 0 0 1 0-45.3l22.6-22.6a32 32 0 0 1 45.3 45.3l-22.6 22.6a32 32 0 0 1-45.3 0zM320 224a96 96 0 1 1 0 192 96 96 0 0 1 0-192z"/></svg>
